<svg class="w-6 h-6" width="24" height="24" viewBox="0 0 24 24" fill="none" xmlns="http://www.w3.org/2000/svg"><path d="M10 4V2C10 1.44772 10.4477 1 11 1C11.5523 1 12 1.44772 12 2V4C12 4.55228 11.5523 5 11 5C10.4477 5 10 4.55228 10 4Z" fill="#256AF4FF" style="fill-opacity:1;"/><path d="M4 4V2C4 1.44772 4.44772 1 5 1C5.55228 1 6 1.44772 6 2V4C6 4.55228 5.55228 5 5 5C4.44772 5 4 4.55228 4 4Z" fill="#256AF4FF" style="fill-opacity:1;"/><path d="M1 9V5C1 4.20435 1.3163 3.44152 1.87891 2.87891C2.44152 2.3163 3.20435 2 4 2H5C5.55228 2 6 2.44772 6 3C6 3.55228 5.55228 4 5 4H4C3.73478 4 3.48051 4.10543 3.29297 4.29297C3.10543 4.48051 3 4.73478 3 5V9L3.00586 9.24805C3.06719 10.4838 3.58579 11.6561 4.46484 12.5352C5.40253 13.4728 6.67392 14 8 14C9.32608 14 10.5975 13.4728 11.5352 12.5352C12.4142 11.6561 12.9328 10.4838 12.9941 9.24805L13 9V5C13 4.73478 12.8946 4.48051 12.707 4.29297C12.5195 4.10543 12.2652 4 12 4H11C10.4477 4 10 3.55228 10 3C10 2.44772 10.4477 2 11 2H12C12.7956 2 13.5585 2.3163 14.1211 2.87891C14.6837 3.44152 15 4.20435 15 5V9L14.9912 9.34668C14.9055 11.077 14.181 12.7194 12.9502 13.9502C11.6374 15.2629 9.85652 16 8 16C6.14348 16 4.36256 15.2629 3.0498 13.9502C1.819 12.7194 1.09452 11.077 1.00879 9.34668L1 9Z" fill="#256AF4FF" style="fill-opacity:1;"/><path d="M7 15C7 14.4477 7.44772 14 8 14C8.55228 14 9 14.4477 9 15C9 16.3261 9.52716 17.5975 10.4648 18.5352C11.4025 19.4728 12.6739 20 14 20C15.3261 20 16.5975 19.4728 17.5352 18.5352C18.4142 17.6561 18.9328 16.4838 18.9941 15.248L19 15V12C19 11.4477 19.4477 11 20 11C20.5523 11 21 11.4477 21 12V15L20.9912 15.3467C20.9055 17.077 20.181 18.7194 18.9502 19.9502C17.6374 21.263 15.8565 22 14 22C12.1435 22 10.3626 21.263 9.0498 19.9502C7.73705 18.6374 7 16.8565 7 15Z" fill="#256AF4FF" style="fill-opacity:1;"/><path d="M21 10C21 9.44772 20.5523 9 20 9C19.4477 9 19 9.44772 19 10C19 10.5523 19.4477 11 20 11C20.5523 11 21 10.5523 21 10ZM23 10C23 11.6569 21.6569 13 20 13C18.3431 13 17 11.6569 17 10C17 8.34315 18.3431 7 20 7C21.6569 7 23 8.34315 23 10Z" fill="#256AF4FF" style="fill-opacity:1;"/></svg>