<svg class="w-6 h-6" width="24" height="24" viewBox="0 0 24 24" fill="none" xmlns="http://www.w3.org/2000/svg"><path d="M10 12C10 10.8954 10.8954 10 12 10C13.1046 10 14 10.8954 14 12C14 13.1046 13.1046 14 12 14C10.8954 14 10 13.1046 10 12Z" fill="#256AF4FF" style="fill-opacity:1;"/><path d="M5.84629 2.00744C6.87383 1.97524 8.00712 2.21762 9.1627 2.6549C11.3317 3.47571 13.7372 5.04346 15.9625 7.16076L16.4059 7.59142L16.4088 7.59435L16.8395 8.03674C18.9569 10.2622 20.5245 12.6684 21.3453 14.8375C21.7826 15.9931 22.025 17.1264 21.9928 18.1539C21.9603 19.1872 21.6437 20.1694 20.9078 20.9039L20.9088 20.9049C20.1739 21.6434 19.1889 21.9603 18.1539 21.9928C17.1264 22.025 15.9931 21.7826 14.8375 21.3453C12.5238 20.4698 9.9405 18.7446 7.59434 16.4088L7.59141 16.4059C5.25561 14.0597 3.53044 11.4764 2.65489 9.16271C2.21761 8.00714 1.97523 6.87384 2.00743 5.84631C2.03991 4.81143 2.35601 3.8263 3.09434 3.09143C3.82891 2.35519 4.81279 2.03988 5.84629 2.00744ZM5.90879 4.00646C5.23161 4.02772 4.78849 4.22402 4.5084 4.50549L4.50547 4.50842C4.224 4.78851 4.02771 5.23162 4.00645 5.90881C3.98498 6.59331 4.1474 7.45678 4.525 8.45471C5.27913 10.4476 6.82284 12.7988 9.00547 14.9918L9.41856 15.3932C11.492 17.3654 13.6763 18.7679 15.5455 19.4752C16.5434 19.8528 17.407 20.0153 18.0914 19.9938C18.7683 19.9725 19.2107 19.7761 19.4908 19.4947L19.4947 19.4908L19.5963 19.3785C19.8227 19.0969 19.9751 18.6839 19.9938 18.0914C20.0152 17.407 19.8527 16.5434 19.4752 15.5455C18.7211 13.5527 17.1772 11.2014 14.9947 9.00842L14.5816 8.60705C12.5082 6.63471 10.3239 5.23236 8.45469 4.52502C7.45677 4.14742 6.5933 3.98499 5.90879 4.00646Z" fill="#256AF4FF" style="fill-opacity:1;"/><path d="M18.1539 2.00743C19.1888 2.03992 20.1739 2.35593 20.9088 3.09435H20.9078C21.6443 3.82895 21.9603 4.81262 21.9928 5.8463C22.025 6.87383 21.7826 8.00713 21.3453 9.16271C20.4698 11.4764 18.7446 14.0597 16.4088 16.4059L16.4059 16.4088C14.0597 18.7446 11.4764 20.4698 9.16271 21.3453C8.00713 21.7826 6.87383 22.025 5.8463 21.9928C4.81262 21.9603 3.82895 21.6443 3.09435 20.9078V20.9088C2.35593 20.1739 2.03992 19.1888 2.00743 18.1539C1.97519 17.1264 2.2176 15.9931 2.65489 14.8375C3.53043 12.5238 5.25559 9.94051 7.59142 7.59435L7.59435 7.59142L8.03673 7.16075C10.2622 5.04323 12.6683 3.47574 14.8375 2.65489C15.9931 2.2176 17.1264 1.97519 18.1539 2.00743ZM18.0914 4.00646C17.4069 3.98497 16.5434 4.14745 15.5455 4.52501C13.5518 5.27946 11.1993 6.82429 9.00548 9.00841C6.8229 11.2014 5.27912 13.5527 4.52501 15.5455C4.14745 16.5434 3.98497 17.4069 4.00646 18.0914C4.02508 18.6839 4.17748 19.0969 4.40392 19.3785L4.50548 19.4908L4.50841 19.4947L4.62169 19.5963C4.9033 19.8226 5.31639 19.9752 5.9088 19.9938C6.59329 20.0152 7.45681 19.8528 8.4547 19.4752C10.4484 18.7208 12.8009 17.1759 14.9947 14.9918C17.1773 12.7988 18.7211 10.4475 19.4752 8.4547C19.8528 7.45681 20.0152 6.59329 19.9938 5.9088C19.9725 5.23161 19.7762 4.7885 19.4947 4.50841L19.4908 4.50548C19.2108 4.22408 18.7684 4.02774 18.0914 4.00646Z" fill="#256AF4FF" style="fill-opacity:1;"/></svg>